<svg width="112" height="16" viewBox="0 0 112 16" fill="none" xmlns="http://www.w3.org/2000/svg">
<g clip-path="url(#clip0_3_107)">
<path d="M4.51492 3.65706V15.0497H8.66864V3.65706H13.1836V0.376221H0V3.65706H4.51492Z" fill="white"/>
<path d="M24.7869 10.4444C25.6539 10.0387 26.3892 9.3972 26.9089 8.59331C27.4271 7.75903 27.6888 6.79086 27.6614 5.80911C27.6965 4.80366 27.4282 3.81091 26.8914 2.96004C26.3545 2.10917 25.574 1.43956 24.6514 1.03835C23.5565 0.578317 22.3774 0.352744 21.19 0.376166H14.4327V3.64195H20.889C21.5789 3.59598 22.2623 3.79889 22.8154 4.21384C23.0326 4.41679 23.2031 4.66464 23.3148 4.94013C23.4266 5.21563 23.477 5.51216 23.4625 5.80911C23.478 6.10618 23.4281 6.40303 23.3163 6.67868C23.2044 6.95433 23.0334 7.20207 22.8154 7.40438C22.2583 7.80866 21.5752 8.00078 20.889 7.94617H14.4327V15.0496H18.5864V11.1518H20.8439L23.5077 15.0496H28.0226L24.7869 10.4444Z" fill="white"/>
<path d="M39.6259 0.376221H35.5324L29.046 15.0497H33.29L34.4338 12.2053L35.6528 9.19536L37.534 4.43964L39.4152 9.13516L40.6342 12.1451L41.7931 14.9895H46.1123L39.6259 0.376221Z" fill="white"/>
<path d="M49.3932 14.3574C50.6766 15.0175 52.1039 15.3484 53.5469 15.3206C54.7923 15.3436 56.0284 15.1025 57.1739 14.6132C58.2299 14.1617 59.1561 13.4528 59.8678 12.5514L57.219 10.1585C56.5819 10.9927 55.668 11.5722 54.6418 11.7929C53.6156 12.0136 52.5443 11.861 51.6205 11.3625C50.9751 11.0289 50.4492 10.503 50.1156 9.85751C49.7786 9.17673 49.6033 8.42738 49.6033 7.66777C49.6033 6.90817 49.7786 6.15882 50.1156 5.47804C50.4554 4.83717 50.9797 4.31294 51.6205 3.97307C52.2762 3.6178 53.0119 3.43645 53.7576 3.44633C54.4256 3.45839 55.0825 3.61855 55.6811 3.91523C56.2797 4.21192 56.8049 4.63774 57.219 5.162L59.8678 2.76909C59.1425 1.88527 58.2198 1.18418 57.1739 0.722328C56.0277 0.233885 54.7928 -0.0120685 53.5469 -5.85069e-05C52.1014 -0.0180194 50.6741 0.32329 49.3932 0.993223C48.2186 1.61839 47.2395 2.55584 46.5638 3.70217C45.8562 4.89374 45.4965 6.25967 45.5254 7.6452C45.4965 9.03073 45.8562 10.3967 46.5638 11.5882C47.2281 12.7587 48.2087 13.7184 49.3932 14.3574Z" fill="white"/>
<path d="M65.0449 3.65706V15.0497H69.1384V3.65706H73.6533V0.376221H60.53V3.65706H65.0449Z" fill="white"/>
<path d="M74.9626 0.376221V15.0497H79.1164V0.376221H74.9626Z" fill="white"/>
<path d="M90.6143 0.376221H86.5208L80.0344 15.0497H84.2784L85.4372 12.2053L86.6412 9.19536L88.5375 4.49984L90.4187 9.19536L91.6377 12.2053L92.7966 15.0497H97.1158L90.6143 0.376221Z" fill="white"/>
<path d="M98.0188 15.0497H102.097V10.6702L98.0489 5.49312L98.0188 15.0497ZM107.922 0.376221V4.59014L111.985 9.49635V0.376221H107.922ZM107.922 8.20207L101.435 0.376221H98.0188V2.31763L102.097 7.22384L108.569 15.0497H112V13.3491L107.922 8.17198V8.20207Z" fill="white"/>
</g>
<defs>
<clipPath id="clip0_3_107">
<rect width="112" height="15.2755" fill="white"/>
</clipPath>
</defs>
</svg>
