<svg width="32" height="32" viewBox="0 0 32 32" fill="none" xmlns="http://www.w3.org/2000/svg">
<g clip-path="url(#clip0_2_100)">
<path d="M0.5 2.33432C0.5 1.32125 1.32125 0.5 2.33432 0.5H29.6657C30.6787 0.5 31.5 1.32125 31.5 2.33432V29.6657C31.5 30.6787 30.6787 31.5 29.6657 31.5H2.33432C1.32125 31.5 0.5 30.6787 0.5 29.6657V2.33432Z" fill="#1E62ED"/>
<path d="M6.5625 8.875V23.1158H10.5938V8.875H6.5625Z" fill="white"/>
<path d="M21.7527 8.875H17.7799L11.4847 23.1158H15.6036L16.7283 20.3553L17.8967 17.4341L19.7371 12.877L21.5628 17.4341L22.7459 20.3553L23.8706 23.1158H28.0625L21.7527 8.875Z" fill="white"/>
</g>
<defs>
<clipPath id="clip0_2_100">
<rect width="32" height="32" fill="white"/>
</clipPath>
</defs>
</svg>
